<svg width="24" height="24" viewBox="0 0 24 24" fill="none" xmlns="http://www.w3.org/2000/svg">
<path d="M8.50006 18C11.746 20.5246 13.7001 20.968 15.2386 21.0191C16.3307 21.0554 17.4351 20.8747 18.4222 20.4062C19.6813 19.8088 20.8041 18.9506 20.5174 18C20.0174 16.3421 18.2633 14.8421 16.8863 14.8421C15.0502 14.8421 14.7048 16.5 14.0174 16.5C13.4769 16.5 12.0001 15.5 11.0001 14.5M5.00006 14C4.50006 13.5 4.46828 13.3603 4.00006 12.5C2.96144 10.5916 2.50005 9 3.01736 7.01385C3.53467 5.0277 5.51737 3 6.32895 3C7.08188 3 9.4418 5.03844 9.77899 6.64692C9.82921 6.88649 9.77811 7.13403 9.64243 7.33776C9.15045 8.07649 8.00242 9.13638 8.01736 10C8.02601 10.5002 9.00006 11.5 9.00006 11.5" stroke="#222628" stroke-width="1.4" stroke-linecap="round" stroke-linejoin="round"/>
<line x1="18.9681" y1="6.98943" x2="3.98943" y2="21.0319" stroke="#222628" stroke-width="1.4" stroke-linecap="round"/>
</svg>
