<svg width="24" height="24" viewBox="0 0 24 24" fill="none" xmlns="http://www.w3.org/2000/svg">
<path d="M15.3806 3H10.383C6.23853 3 2.87878 6.35974 2.87878 10.5042L3.0088 16.1102C3.03778 17.3598 2.8406 18.6043 2.42677 19.7837C2.24415 20.3042 2.71471 20.8184 3.2493 20.6825L3.96035 20.5019C5.24637 20.1751 6.57007 20.0204 7.89678 20.0418L11.5 20.1H15C18.866 20.1 22 16.966 22 13.1V9.61936C22 5.96359 19.0364 3 15.3806 3Z" stroke="#222628" stroke-width="1.4"/>
<ellipse cx="9.143" cy="11.6669" rx="0.714286" ry="0.666667" fill="#222628"/>
<ellipse cx="12.0002" cy="11.6669" rx="0.714286" ry="0.666667" fill="#222628"/>
<ellipse cx="14.8571" cy="11.6669" rx="0.714286" ry="0.666667" fill="#222628"/>
</svg>
