<svg width="24" height="24" viewBox="0 0 24 24" fill="none" xmlns="http://www.w3.org/2000/svg">
<rect x="2" y="2" width="20" height="20" rx="6" stroke="#222628" stroke-width="1.4"/>
<path d="M13.5587 9.77165L11.5677 8.81659C10.3209 8.2185 9.6975 7.91945 9.26808 8.1208C9.13388 8.18373 9.01534 8.2757 8.92104 8.39007C8.61934 8.75601 8.75415 9.43416 9.02377 10.7905L9.02377 10.7905L9.45431 12.9563C9.53069 13.3405 9.56888 13.5326 9.66967 13.6909C9.70291 13.7431 9.74091 13.792 9.7832 13.8372C9.91145 13.9741 10.088 14.0589 10.4413 14.2283L12.4322 15.1833C13.6791 15.7814 14.3025 16.0805 14.7319 15.8791C14.8661 15.8162 14.9846 15.7242 15.0789 15.6099C15.3806 15.2439 15.2458 14.5658 14.9762 13.2095L14.5457 11.0436C14.4693 10.6594 14.4311 10.4673 14.3303 10.3091C14.2971 10.2569 14.2591 10.2079 14.2168 10.1627C14.0885 10.0258 13.9119 9.94108 13.5587 9.77165Z" stroke="#222628" stroke-width="1.4" stroke-linecap="round" stroke-linejoin="round"/>
</svg>
