<svg width="24" height="24" viewBox="0 0 24 24" fill="none" xmlns="http://www.w3.org/2000/svg">
<rect x="2.7" y="2.7" width="18.6" height="18.6" rx="5.3" stroke="#222628" stroke-width="1.4"/>
<path d="M16.805 9.64168L11.0417 16.501C10.6694 16.9441 10.1556 17.223 9.60541 17.2734C9.11953 17.3179 8.57313 17.3561 8.12443 17.358C7.91502 17.3589 7.74359 17.3517 7.6171 17.3374C7.58124 17.2153 7.54461 17.0477 7.50939 16.8412C7.43394 16.3989 7.3774 15.8541 7.33753 15.3678C7.29237 14.8172 7.47851 14.2631 7.85081 13.82L13.6063 6.97008C14.014 6.48481 14.6762 6.38409 15.1529 6.69634C15.4895 6.91684 15.8117 7.14474 16.0532 7.34765C16.287 7.54413 16.5525 7.80739 16.8128 8.08537C17.1967 8.4954 17.2112 9.15829 16.805 9.64168ZM7.66544 17.4733C7.66542 17.4733 7.6654 17.4732 7.66539 17.4732L7.66544 17.4733Z" stroke="#222628" stroke-width="1.4"/>
<path d="M13.2729 8C13.2729 8 13.8667 8.98509 14.424 9.35204C14.9814 9.71899 15.68 10.115 15.68 10.115" stroke="#222628" stroke-width="1.4" stroke-linecap="round"/>
</svg>
