<svg width="24" height="24" viewBox="0 0 24 24" fill="none" xmlns="http://www.w3.org/2000/svg">
<path d="M19.0368 7.57836L8.58077 20.0226C8.24564 20.4215 7.79294 20.6892 7.29545 20.7781C6.56742 20.9081 5.57996 21.0687 4.72955 21.1537C4.302 21.1964 3.92946 21.2178 3.64989 21.2105C3.56811 21.2084 3.50107 21.2039 3.44759 21.1983C3.4328 21.1466 3.41686 21.0813 3.40067 21.0011C3.34535 20.727 3.30221 20.3563 3.27058 19.9278C3.20767 19.0755 3.19575 18.0751 3.19834 17.3356C3.2001 16.8302 3.38584 16.3381 3.72096 15.9393L14.1681 3.50553C14.5635 3.03502 15.2081 2.92188 15.6984 3.2118C16.3521 3.59832 17.0702 4.05924 17.5609 4.47154C18.0429 4.87651 18.5955 5.47844 19.0676 6.03451C19.4315 6.46307 19.4299 7.11043 19.0368 7.57836ZM3.31421 21.1749C3.31433 21.1748 3.31662 21.1755 3.32076 21.1771C3.31616 21.1758 3.3141 21.175 3.31421 21.1749ZM3.49031 21.3195C3.49261 21.3234 3.49366 21.3255 3.4936 21.3256C3.49354 21.3257 3.4924 21.3238 3.49031 21.3195Z" stroke="#222628" stroke-width="1.4"/>
<path d="M12.4182 6C12.4182 6 13.4566 7.59424 14.3934 8.21099C15.3301 8.82774 16.5 9.5 16.5 9.5" stroke="#222628" stroke-width="1.4" stroke-linecap="round"/>
<line x1="14.7" y1="21.3" x2="21.3" y2="21.3" stroke="#222628" stroke-width="1.4" stroke-linecap="round"/>
</svg>
