<svg width="24" height="24" viewBox="0 0 24 24" fill="none" xmlns="http://www.w3.org/2000/svg">
<path d="M3 12.2C3 9.20021 3 7.70032 3.76393 6.64886C4.01065 6.30928 4.30928 6.01065 4.64886 5.76393C5.70032 5 7.20021 5 10.2 5H13.8C16.7998 5 18.2997 5 19.3511 5.76393C19.6907 6.01065 19.9893 6.30928 20.2361 6.64886C21 7.70032 21 9.20021 21 12.2V13.4C21 14.8999 21 15.6498 20.618 16.1756C20.4947 16.3454 20.3454 16.4947 20.1756 16.618C19.6498 17 18.8999 17 17.4 17H6.6C5.10011 17 4.35016 17 3.82443 16.618C3.65464 16.4947 3.50533 16.3454 3.38197 16.1756C3 15.6498 3 14.8999 3 13.4V12.2Z" stroke="#222628" stroke-width="1.4"/>
<path fill-rule="evenodd" clip-rule="evenodd" d="M3.01858 17.3003C2.62181 17.3003 2.30017 17.6219 2.30017 18.0187C2.30017 18.9474 3.05304 19.7003 3.98177 19.7003H20.0194C20.9477 19.7003 21.7002 18.9478 21.7002 18.0195C21.7002 17.6223 21.3782 17.3003 20.9809 17.3003H3.01858ZM11.5002 17.8003C11.1136 17.8003 10.8002 18.1137 10.8002 18.5003C10.8002 18.8869 11.1136 19.2003 11.5002 19.2003H12.5002C12.8868 19.2003 13.2002 18.8869 13.2002 18.5003C13.2002 18.1137 12.8868 17.8003 12.5002 17.8003H11.5002Z" fill="#222628"/>
</svg>
