<svg width="24" height="24" viewBox="0 0 24 24" fill="none" xmlns="http://www.w3.org/2000/svg">
<path d="M7.26836 14.409L5.88799 9.25741M7.26836 14.409L5.01454 15.0129M7.26836 14.409L8.62335 14.5574M5.88799 9.25741L2.34627 10.2064C1.8128 10.3494 1.49622 10.8977 1.63916 11.4312L2.50189 14.6509C2.64483 15.1844 3.19317 15.501 3.72663 15.358L5.01454 15.0129M5.88799 9.25741L12.6295 3.22607C13.5296 2.42078 14.6123 1.84687 15.784 1.55396V1.55396C15.9048 1.52378 16.0279 1.59409 16.0632 1.71344L19.9222 14.75C19.9652 14.8954 19.8827 15.0483 19.7375 15.0922V15.0922C18.5912 15.4383 17.3864 15.5475 16.1965 15.4131L8.62335 14.5574M5.01454 15.0129L7.3621 20.404C7.55972 20.8579 8.05963 21.0988 8.53776 20.9707L9.83885 20.6221C10.4173 20.4671 10.7307 19.842 10.5089 19.2858L8.62335 14.5574" stroke="#222628" stroke-width="1.4" stroke-linecap="round" stroke-linejoin="round"/>
<path d="M17.8718 6.65356C17.8718 6.65356 19.8822 6.23892 20.3781 8.08956C20.874 9.94021 18.9256 10.5863 18.9256 10.5863" stroke="#222628" stroke-width="1.4" stroke-linecap="round" stroke-linejoin="round"/>
</svg>
