<svg width="24" height="24" viewBox="0 0 24 24" fill="none" xmlns="http://www.w3.org/2000/svg">
<path d="M15.0101 6.39673C15.1191 5.86356 15.8809 5.86356 15.9899 6.39673L16.1975 7.41272C16.2376 7.60898 16.391 7.76235 16.5873 7.80247L17.6033 8.01013C18.1364 8.1191 18.1364 8.8809 17.6033 8.98987L16.5873 9.19753C16.391 9.23765 16.2376 9.39102 16.1975 9.58728L15.9899 10.6033C15.8809 11.1364 15.1191 11.1364 15.0101 10.6033L14.8025 9.58728C14.7624 9.39102 14.609 9.23765 14.4127 9.19753L13.3967 8.98987C12.8636 8.8809 12.8636 8.1191 13.3967 8.01013L14.4127 7.80247C14.609 7.76235 14.7624 7.60898 14.8025 7.41272L15.0101 6.39673Z" fill="#222628"/>
<path d="M18 4.96045C17.6381 4.70505 17.8981 4.13802 18.3278 4.24561L18.6829 4.33454C18.8382 4.37341 19.0017 4.316 19.0985 4.1886L19.4008 3.79108C19.6593 3.45102 20.1994 3.69867 20.1104 4.11649L20.0064 4.6049C19.9731 4.76143 20.0362 4.92276 20.167 5.01503L20.4661 5.22612C20.828 5.48152 20.568 6.04855 20.1383 5.94095L19.7832 5.85203C19.6279 5.81316 19.4645 5.87057 19.3676 5.99797L19.0654 6.39549C18.8068 6.73555 18.2667 6.4879 18.3557 6.07008L18.4597 5.58167C18.4931 5.42514 18.4299 5.26381 18.2991 5.17154L18 4.96045Z" fill="#222628"/>
<path d="M10.5917 14C6.35607 8.6917 10.0001 3.5 10.0001 3.5C10.0001 3.5 6.18528 3.99999 4.06888 7.9785C0.551264 14.5911 5.00005 22 14.1218 20.9086C18.8837 20.3119 21.0001 16.4328 21.0001 16.4328C21.0001 16.4328 13.7834 18 10.5917 14Z" stroke="#222628" stroke-width="1.4" stroke-linecap="round" stroke-linejoin="round"/>
</svg>
