<svg width="24" height="24" viewBox="0 0 24 24" fill="none" xmlns="http://www.w3.org/2000/svg">
<path d="M19.9045 3.72241L18.4869 5.22962" stroke="#222628" stroke-width="1.4" stroke-linecap="round" stroke-linejoin="round"/>
<path d="M21.9106 8.86962L19.7062 8.78665" stroke="#222628" stroke-width="1.4" stroke-linecap="round" stroke-linejoin="round"/>
<path d="M15.0632 1.58932L15.1412 3.93309" stroke="#222628" stroke-width="1.4" stroke-linecap="round" stroke-linejoin="round"/>
<path d="M5.28251 19.6319L3.8683 18.2177C2.69672 17.0461 2.69672 15.1466 3.8683 13.975L7.92155 9.92176C8.33351 9.50981 8.6166 8.98682 8.73627 8.41665L9.15767 6.40881C9.25327 5.95328 9.47944 5.53545 9.80856 5.20633C10.0426 4.97233 10.422 4.97233 10.656 5.20633L14.4749 9.02527L18.2938 12.8442C18.5278 13.0782 18.5278 13.4576 18.2938 13.6916C17.9647 14.0207 17.5469 14.2469 17.0914 14.3425L15.0835 14.7639C14.5134 14.8836 13.9904 15.1667 13.5784 15.5786L9.52515 19.6319C8.35358 20.8034 6.45408 20.8034 5.28251 19.6319Z" stroke="#222628" stroke-width="1.4" stroke-linecap="round" stroke-linejoin="round"/>
<path d="M8.11096 15.3892L7.40386 16.0963" stroke="#222628" stroke-width="1.4" stroke-linecap="round" stroke-linejoin="round"/>
</svg>
