<svg width="24" height="24" viewBox="0 0 24 24" fill="none" xmlns="http://www.w3.org/2000/svg">
<rect x="2" y="2" width="20" height="19" rx="6" stroke="#222628" stroke-width="1.4"/>
<line x1="2" y1="9.3" x2="22" y2="9.3" stroke="#222628" stroke-width="1.4"/>
<path d="M15 6L18 6" stroke="#222628" stroke-width="1.4" stroke-linecap="round"/>
<path d="M8.99998 6.00005C8.99998 6.38665 8.68657 6.70005 8.29998 6.70005C7.91338 6.70005 7.59998 6.38665 7.59998 6.00005C7.59998 5.61345 7.91338 5.30005 8.29998 5.30005C8.68657 5.30005 8.99998 5.61345 8.99998 6.00005Z" fill="#222628"/>
<path d="M6.99998 6.00005C6.99998 6.38665 6.68657 6.70005 6.29998 6.70005C5.91338 6.70005 5.59998 6.38665 5.59998 6.00005C5.59998 5.61345 5.91338 5.30005 6.29998 5.30005C6.68657 5.30005 6.99998 5.61345 6.99998 6.00005Z" fill="#222628"/>
</svg>
